<svg width="16" height="16" viewBox="0 0 16 16" fill="none" xmlns="http://www.w3.org/2000/svg">
<rect width="16" height="16" fill="#6300DD"/>
<path d="M2.04782 4.20887H4.61697V3.2953H2.04782V2.06638H4.97869V1.12498H0.934845V6.62498H5.00187V5.69286H2.04782V4.20887Z" fill="#FF7448"/>
<path d="M9.03917 4.01192C9.03917 4.26719 9.04845 4.58744 9.07167 4.96803H9.05775L8.99741 4.84271C8.96027 4.75453 8.90923 4.64778 8.84425 4.51782C8.7839 4.38786 8.7282 4.28111 8.67716 4.19293L6.83919 1.125H5.7067V6.625H6.80669V3.7845C6.80669 3.52921 6.79741 3.20896 6.77421 2.82373H6.78813L6.84847 2.94441C6.88559 3.0326 6.93665 3.13934 7.00163 3.2693C7.06662 3.38997 7.12694 3.49673 7.178 3.58491L9.05775 6.625H10.1345V1.125H9.03453V4.01192H9.03917Z" fill="#FF7448"/>
<path d="M10.7817 2.06255H12.4386V6.625H13.5526V2.06255H15.2096V1.125H10.7817V2.06255Z" fill="#FF7448"/>
<path d="M10.625 8.31255H12.2819V12.875H13.3959V8.31255H15.0529V7.375H10.625V8.31255Z" fill="#FF7448"/>
<path d="M9.77658 10.2029C9.67423 10.1005 9.52717 10.007 9.33135 9.92243C9.1442 9.83339 8.97054 9.76651 8.80577 9.72198C8.64543 9.67303 8.43612 9.61944 8.17783 9.56606C7.75029 9.47258 7.44746 9.3791 7.27824 9.28562C7.10899 9.19195 7.02883 9.04508 7.02883 8.84463C7.02883 8.65768 7.11345 8.50619 7.28714 8.39478C7.46082 8.28357 7.6924 8.22556 7.98187 8.22556C8.27134 8.22556 8.49402 8.29244 8.67662 8.43044C8.86357 8.56844 8.97054 8.76446 9.00177 9.02273H10.0304C9.99033 8.49732 9.79007 8.08756 9.4337 7.80249C9.07289 7.51743 8.59646 7.375 7.99523 7.375C7.39402 7.375 6.8997 7.513 6.52561 7.7892C6.15598 8.06077 5.97338 8.44836 5.97338 8.95604C5.97338 9.16979 6.009 9.35674 6.0758 9.52597C6.1426 9.68633 6.22721 9.81989 6.3252 9.92243C6.42762 10.0203 6.56568 10.1138 6.73936 10.194C6.91751 10.2786 7.07783 10.3411 7.22034 10.3811C7.3673 10.4212 7.55434 10.4658 7.78148 10.5236C7.96851 10.5681 8.09767 10.5993 8.16447 10.6171C8.23127 10.6306 8.3337 10.6572 8.4673 10.6972C8.60091 10.7329 8.68998 10.7641 8.73897 10.7998C8.78794 10.8308 8.84584 10.8709 8.91716 10.9245C8.98384 10.9734 9.02837 11.0313 9.05072 11.1026C9.07289 11.1648 9.08638 11.2406 9.08638 11.3252C9.08638 11.5569 8.98828 11.7305 8.79685 11.8417C8.60536 11.9487 8.36041 12.0065 8.05758 12.0065C7.67904 12.0065 7.39402 11.9398 7.20253 11.8016C7.01548 11.6636 6.90415 11.4366 6.86851 11.1247H5.82196C5.83977 11.686 6.04908 12.1179 6.44098 12.4251C6.8329 12.7235 7.38956 12.875 8.10212 12.875C8.71224 12.875 9.20665 12.7279 9.58519 12.434C9.96373 12.1401 10.1551 11.7305 10.1551 11.2093C10.1551 10.9867 10.1195 10.7952 10.0439 10.6259C9.97703 10.4523 9.88798 10.3143 9.77658 10.2119" fill="#FF7448"/>
<path d="M3.80063 7.5H4.91453V13H3.80063V9H3.75H2.5V8.5L3.25 8L3.75 7.5H3.80063Z" fill="#FF7448"/>
</svg>
