<svg width="32" height="32" viewBox="0 0 32 32" fill="none" xmlns="http://www.w3.org/2000/svg">
<g filter="url(#filter0_i_9002_53790)">
<path d="M8 12C8 9.79086 9.79086 8 12 8H28C30.2091 8 32 9.79086 32 12V28C32 30.2091 30.2091 32 28 32H12C9.79086 32 8 30.2091 8 28V12Z" fill="url(#paint0_linear_9002_53790)"/>
<g clip-path="url(#clip0_9002_53790)">
<path d="M0 4C0 1.79086 1.79086 0 4 0H20C22.2091 0 24 1.79086 24 4V20C24 22.2091 22.2091 24 20 24H4C1.79086 24 0 22.2091 0 20V4Z" fill="url(#paint1_linear_9002_53790)"/>
<path d="M8 12C8 9.79086 9.79086 8 12 8H28C30.2091 8 32 9.79086 32 12V28C32 30.2091 30.2091 32 28 32H12C9.79086 32 8 30.2091 8 28V12Z" fill="#528BFF"/>
</g>
</g>
<defs>
<filter id="filter0_i_9002_53790" x="0" y="-0.5" width="32" height="32.5" filterUnits="userSpaceOnUse" color-interpolation-filters="sRGB">
<feFlood flood-opacity="0" result="BackgroundImageFix"/>
<feBlend mode="normal" in="SourceGraphic" in2="BackgroundImageFix" result="shape"/>
<feColorMatrix in="SourceAlpha" type="matrix" values="0 0 0 0 0 0 0 0 0 0 0 0 0 0 0 0 0 0 127 0" result="hardAlpha"/>
<feOffset dy="-0.5"/>
<feGaussianBlur stdDeviation="0.25"/>
<feComposite in2="hardAlpha" operator="arithmetic" k2="-1" k3="1"/>
<feColorMatrix type="matrix" values="0 0 0 0 0.0392157 0 0 0 0 0.0509804 0 0 0 0 0.0705882 0 0 0 0.1 0"/>
<feBlend mode="normal" in2="shape" result="effect1_innerShadow_9002_53790"/>
</filter>
<linearGradient id="paint0_linear_9002_53790" x1="32" y1="32" x2="8" y2="8" gradientUnits="userSpaceOnUse">
<stop stop-color="#D1E0FF"/>
<stop offset="1" stop-color="#B2CCFF"/>
</linearGradient>
<linearGradient id="paint1_linear_9002_53790" x1="0" y1="0" x2="24" y2="24" gradientUnits="userSpaceOnUse">
<stop stop-color="#004EEB"/>
<stop offset="1" stop-color="#0040C1"/>
</linearGradient>
<clipPath id="clip0_9002_53790">
<path d="M0 4C0 1.79086 1.79086 0 4 0H20C22.2091 0 24 1.79086 24 4V20C24 22.2091 22.2091 24 20 24H4C1.79086 24 0 22.2091 0 20V4Z" fill="white"/>
</clipPath>
</defs>
</svg>
