<svg width="16" height="16" viewBox="0 0 16 16" fill="none" xmlns="http://www.w3.org/2000/svg">
<g clip-path="url(#clip0_9002_54101)">
<path d="M16 8C16 3.58172 12.4183 0 8 0C3.58172 0 0 3.58172 0 8C0 12.4183 3.58172 16 8 16C12.4183 16 16 12.4183 16 8Z" fill="#FF4433"/>
<mask id="mask0_9002_54101" style="mask-type:luminance" maskUnits="userSpaceOnUse" x="4" y="4" width="8" height="8">
<path d="M12 4.72728H4V11.5844H12V4.72728Z" fill="white"/>
</mask>
<g mask="url(#mask0_9002_54101)">
<path d="M10.027 8.22827L12 4.88247H10.1911L10.1591 4.95133C9.93899 5.38879 9.73489 5.83031 9.50678 6.26373C9.40634 5.84895 9.19441 5.47041 8.89447 5.17006C8.55419 4.86931 8.11331 4.71139 7.66187 4.72854C7.00553 4.73138 6.36634 4.9409 5.83297 5.32803C5.25511 5.74162 4.79317 6.29989 4.49231 6.94828C4.16794 7.62189 4.00089 8.36195 4.00407 9.11131C3.96833 9.76298 4.16899 10.4054 4.56835 10.9179C4.96442 11.3666 5.53928 11.6107 6.13312 11.5822C6.68319 11.588 7.22007 11.4117 7.66187 11.0799C8.10521 10.6992 8.4873 10.251 8.79442 9.7513L8.99852 11.1771L9.04255 11.4769H10.8594L10.027 8.23637V8.22827ZM7.68188 6.1179C7.94142 6.12825 8.16908 6.29626 8.25816 6.54322C8.45278 7.04115 8.55455 7.57128 8.55831 8.10675L8.3382 8.56852C7.76992 9.61358 7.13761 10.1442 6.4973 10.1442C6.28026 10.1534 6.07468 10.0455 5.95703 9.86067C5.80751 9.61849 5.73488 9.33577 5.74893 9.05055C5.74792 8.54948 5.8473 8.05342 6.04107 7.59233C6.20239 7.17548 6.45562 6.80142 6.78144 6.49866C7.02947 6.26022 7.35593 6.12314 7.69789 6.11385L7.68188 6.1179Z" fill="white"/>
</g>
</g>
<defs>
<clipPath id="clip0_9002_54101">
<rect width="16" height="16" fill="white"/>
</clipPath>
</defs>
</svg>
