<svg width="16" height="16" viewBox="0 0 32 32" fill="none" xmlns="http://www.w3.org/2000/svg">
<rect width="32" height="32" fill="#8D6FDE"/>
<path d="M6.19141 18.8463C6.21248 18.8424 13.1815 17.5605 16.0888 21.3252C18.9213 17.6089 25.9864 18.8463 25.9864 18.8463L25.6658 20.8958C25.6658 20.8958 17.89 19.1903 17.29 24.1252H14.89C14.29 19.2026 6.51191 20.8958 6.51191 20.8958L6.19141 18.8463ZM16.09 13.6002C16.09 13.6002 17.44 15.0252 17.44 16.5252C17.44 17.4252 16.8356 18.2502 16.09 18.2502C15.3445 18.2502 14.74 17.4252 14.74 16.5252C14.74 15.0252 16.09 13.6002 16.09 13.6002ZM7.33955 14.8147C7.33955 14.8147 9.1003 13.9469 10.5331 14.3908C11.3928 14.6572 12.0019 15.4786 11.7813 16.1908C11.5606 16.903 10.5938 17.2362 9.73408 16.9699C8.30242 16.5264 7.34109 14.8175 7.33955 14.8147ZM21.6378 14.3908C23.0698 13.9472 24.8293 14.8138 24.8313 14.8147C24.8271 14.8221 23.8665 16.527 22.4368 16.9699C21.5771 17.2363 20.6102 16.903 20.3896 16.1908C20.1689 15.4786 20.7781 14.6572 21.6378 14.3908ZM9.76397 10.6146C9.76877 10.6137 11.6922 10.2404 12.9567 11.0438C13.7164 11.5264 14.0887 12.4789 13.6889 13.1082C13.2891 13.7375 12.2685 13.8053 11.5089 13.3227C10.2428 12.5183 9.76397 10.6146 9.76397 10.6146ZM19.1688 11.0438C20.4334 10.2404 22.3568 10.6137 22.3616 10.6146C22.3616 10.6146 21.8828 12.5183 20.6167 13.3227C19.857 13.8053 18.8365 13.7375 18.4367 13.1082C18.0369 12.4789 18.4092 11.5264 19.1688 11.0438ZM16.09 7.0752C16.09 7.0752 17.44 8.5002 17.44 10.0002C17.44 10.9002 16.8356 11.7252 16.09 11.7252C15.3445 11.7252 14.74 10.9002 14.74 10.0002C14.74 8.5002 16.09 7.0752 16.09 7.0752Z" fill="white"/>
</svg>
