<svg width="16" height="16" viewBox="0 0 16 16" fill="none" xmlns="http://www.w3.org/2000/svg">
<path fill-rule="evenodd" clip-rule="evenodd" d="M8.87616 10.2784C8.8171 10.2623 8.75268 10.2516 8.69363 10.2355C8.26415 10.1496 7.81856 10.1442 7.38907 10.2248C7.33539 10.2355 7.2817 10.2462 7.23339 10.257C6.90591 10.3375 6.82538 10.5254 6.9757 10.826C7.14212 11.1696 7.42665 11.4488 7.77024 11.6045C7.94203 11.6904 8.14604 11.6904 8.31783 11.5991C8.66679 11.4273 8.94595 11.1374 9.11237 10.7831C9.23585 10.5147 9.17143 10.3536 8.87616 10.2784Z" fill="#00A2FF"/>
<path fill-rule="evenodd" clip-rule="evenodd" d="M13.5885 2.7674C12.7772 1.91682 9.81982 3.34318 9.18734 3.6616C9.10883 3.70085 9.01723 3.72266 8.92999 3.72266H8.01398H7.08925C6.99765 3.72266 6.91041 3.70085 6.8319 3.6616C6.19942 3.33881 3.24203 1.91682 2.43507 2.7674C1.52779 3.72266 1.23554 9.99947 1.75897 10.6101C2.03377 10.9329 3.90068 11.9885 5.39246 12.5512C5.94206 12.7649 6.87988 13.1139 8.01398 13.1139C9.11319 13.1139 10.1077 12.778 10.6137 12.5556C12.9648 11.5218 13.9549 10.9504 14.2297 10.6276C14.7575 10.0169 14.4958 3.72266 13.5885 2.7674ZM10.4218 4.09343C10.871 3.79245 11.3727 3.57436 11.9005 3.44786C12.0182 3.41733 12.1404 3.40424 12.2625 3.4086C12.7031 3.4086 13.0433 3.69649 13.1523 4.14577C13.1523 4.14577 13.3486 5.01816 13.3617 5.81203C13.3661 6.05194 13.1785 6.25695 12.9342 6.26131C12.9255 6.26131 12.9168 6.26131 12.9124 6.26131C12.847 6.26131 12.7772 6.24386 12.7205 6.21769L10.4 4.87858C10.2735 4.80442 10.1949 4.67357 10.1819 4.52962C10.1819 4.51654 10.1819 4.50781 10.1819 4.49473C10.1731 4.32025 10.2691 4.18939 10.4218 4.09343ZM2.86254 4.14141C2.96723 3.69213 3.30746 3.40424 3.75238 3.40424C3.87451 3.39988 3.99664 3.41297 4.11442 3.4435C4.64221 3.57 5.13947 3.78809 5.58875 4.08907C5.73706 4.18503 5.83738 4.31589 5.83738 4.49036C5.83738 4.50345 5.83738 4.51217 5.83738 4.52526C5.82429 4.6692 5.74142 4.80006 5.61928 4.87421L3.29874 6.21333C3.23767 6.24386 3.17224 6.25695 3.10681 6.25695C2.8669 6.26131 2.66189 6.07375 2.65753 5.82948C2.65753 5.82075 2.65753 5.81203 2.65753 5.80767C2.66625 5.01816 2.86254 4.14577 2.86254 4.14141ZM4.68583 8.73887L3.68695 9.39753C3.39906 9.58945 3.3031 9.68541 3.22894 9.82063C3.16788 9.93404 3.13734 10.0649 3.14171 10.1914C3.14171 10.3353 3.08936 10.4269 3.0501 10.4706C2.95414 10.5665 2.83637 10.5883 2.70551 10.5491C2.64881 10.536 2.59646 10.5098 2.54848 10.4706C2.07303 10.0823 2.01633 9.31465 2.42635 8.77377C2.6837 8.43354 2.8669 8.33321 3.95303 7.6135C5.03915 6.89378 5.2049 6.77166 5.61928 6.66697C6.27793 6.50558 6.95839 6.85453 7.12851 7.44774C7.14596 7.50445 7.14596 7.56551 7.13723 7.62222C7.11978 7.75744 7.05436 7.85776 6.9235 7.90575C6.86679 7.92755 6.76211 7.93628 6.63125 7.87957C6.51348 7.82723 6.38262 7.80106 6.25612 7.81414C6.10345 7.83159 5.97696 7.87957 5.68907 8.0715L4.68583 8.73887ZM10.6748 11.1772C10.4872 11.4127 10.2517 11.6352 9.9943 11.7704C8.68136 12.4683 7.35097 12.4596 6.04239 11.7661C5.7894 11.6308 5.55822 11.4127 5.37065 11.1859C5.02606 10.7628 5.04351 10.2394 5.35757 9.79446C5.54949 9.52402 5.80685 9.32773 6.08601 9.17507C6.69232 8.84356 7.34224 8.70834 8.02271 8.69962C8.72498 8.70834 9.40108 8.8392 10.0117 9.21869C10.2647 9.37572 10.4916 9.57637 10.6748 9.80755C11.0106 10.2263 11.0106 10.7628 10.6748 11.1772ZM13.462 10.4793C13.4184 10.5185 13.3617 10.5447 13.305 10.5578C13.1741 10.5927 13.0564 10.5752 12.9604 10.4793C12.9212 10.4357 12.8688 10.3441 12.8688 10.2001C12.8732 10.0693 12.8426 9.94277 12.7816 9.82936C12.7074 9.69414 12.6115 9.59818 12.3236 9.40625L11.3247 8.7476H11.3203L11.316 8.74324L10.3171 8.08458C10.0292 7.89266 9.89834 7.84468 9.75003 7.82723C9.61917 7.81851 9.49268 7.84032 9.3749 7.89266C9.23968 7.94936 9.135 7.93628 9.08265 7.91883C8.95616 7.87085 8.89073 7.77053 8.87328 7.63531C8.86456 7.5786 8.86456 7.51753 8.88201 7.46083C9.05212 6.8676 9.73258 6.51866 10.3912 6.68005C10.8056 6.78038 10.9714 6.90686 12.0575 7.62658C13.1436 8.34194 13.3268 8.44226 13.5842 8.78686C13.9898 9.32774 13.9375 10.0911 13.462 10.4793Z" fill="#00A2FF"/>
</svg>
